<svg xmlns="http://www.w3.org/2000/svg" width="162.31076mm" height="157.5267mm" viewBox="0 0 162.31076 157.5267">
    <path fill="#333" d="m 4529.5233,-168.07164 a 78.931503,76.636284 0 0 1 -78.9315,76.636284 78.931503,76.636284 0 0 1 -78.9315,-76.636284 78.931503,76.636284 0 0 1 78.9315,-76.63628 78.931503,76.636284 0 0 1 78.9315,76.63628 z" transform="translate(-294.21638,-68.262488) translate(-4074.3396,315.65469)"/>
    <path fill="#f65c5c" d="m 4480.5178,-175.84633 c 0,14.88895 -14.9075,30.19773 -29.8669,30.19775 -14.9595,3e-5 -27.0865,-12.06987 -27.0865,-26.95886 0,-14.88899 12.1271,-26.95888 27.0865,-26.95885 14.9594,2e-5 29.8669,8.83102 29.8669,23.71996 z" transform="translate(-294.21638,-68.262488) translate(-4074.3396,315.65469)"/>
    <path fill="#4d4d4d" d="m 4487.4245,-232.73398 -21.2502,39.36939 c 9.1689,2.68103 14.0432,8.40542 13.6422,17.05501 l 43.5994,-10.52417 c 0,0 -0.7449,-3.6968 -7.0828,-17.1072 -6.3378,-13.4104 -28.9086,-28.79303 -28.9086,-28.79303 z m -61.7198,70.76783 c -1.3388,-0.35634 -53.4053,6.76267 -53.4053,6.76267 0,0 7.5776,25.88942 15.6532,33.54245 8.0758,7.65313 24.9902,21.34855 24.9902,21.34855 l 29.1399,-45.95723 z" transform="translate(-294.21638,-68.262488) translate(-4074.3396,315.65469)"/>
    <path d="m 4399.9118,-106.3945 c -25.179,-19.51296 -39.9624,-55.46567 -25.9248,-88.57995 8.3336,-19.66213 26.3887,-37.95357 45.1739,-45.58506 56.7076,-23.03736 91.8273,19.32517 93.9962,22.24829 23.8973,32.20702 22.2415,64.72899 3.218,95.4466 -5.0481,8.15147 -28.8778,33.380545 -62.2892,32.981193 -19.6877,0.355058 -37.6133,-4.545435 -54.1741,-16.511073 z m 67.3165,7.959189 c 12.4048,-3.443709 30.2335,-10.409989 37.8331,-20.357439 19.5325,-25.5671 22.1462,-46.71446 16.8257,-68.07838 -8.5766,-34.43601 -49.1214,-63.80719 -90.0986,-51.05449 -12.4112,3.86271 -18.0433,6.75599 -27.2145,13.98053 -9.7628,7.69089 -17.3677,16.92261 -22.5774,27.56847 -17.2558,35.26178 1.0778,66.75637 20.7674,83.43121 7.8611,6.65688 23.1085,13.120134 35.361,14.989166 8.7565,1.335746 23.4373,1.093835 29.1033,-0.479067 z m -15.1976,-7.026919 c -1.459,-1.52182 -0.5858,-2.43321 2.3314,-2.43321 1.983,0 2.888,0.4419 2.6233,1.28049 -0.4585,1.45241 -3.9,2.25324 -4.9547,1.15272 z m -20.2389,-2.49359 c -5.6414,-1.31707 -14.7654,-5.97099 -19.8194,-8.73766 -11.1491,-6.10255 -22.4431,-20.55763 -25.9798,-35.04551 -1.7028,-6.97482 -2.4531,-18.40107 -1.0094,-22.36256 1.5762,-4.32472 2.6131,-2.19681 3.3359,6.84543 1.255,15.70176 8.2461,29.3354 18.5999,39.44865 4.5989,4.49197 8.7189,7.13893 18.4108,11.82768 13.6907,6.62387 15.6865,10.17794 6.462,8.02397 z m 43.2652,-6.20444 c 6.3493,-3.19832 11.2006,-6.60429 16.1208,-11.31789 11.0089,-10.54607 15.4993,-14.76826 20.9465,-39.24548 0.4704,-2.11273 1.4529,-3.84116 2.1835,-3.84116 5.1182,0 -0.094,23.67568 -7.3874,34.6091 -7.3566,11.02575 -25.5098,23.68604 -35.7997,24.95729 -11.1295,1.82445 0.3607,-3.34116 3.9363,-5.16186 z m -34.7445,-4.32357 c -7.7781,-2.18443 -14.9546,-6.41447 -14.9546,-8.81407 0,-1.3848 2.3622,-1.03316 11.3869,1.69517 9.194,2.77974 16.4134,3.18762 25.4997,1.44112 9.4443,-1.81533 15.7727,-5.57333 23.6137,-14.02331 3.8921,-4.19397 7.5314,-7.33247 8.0871,-6.97423 1.7695,1.14092 -0.7778,6.52053 -5.8046,12.25847 -10.8447,12.37845 -32.1835,18.8109 -47.8282,14.41685 z m -27.5351,-14.1254 c -8.6582,-5.50825 -14.2689,-16.71091 -14.9915,-29.93254 -0.6939,-12.69629 0.6687,-15.03897 2.3798,-4.09223 1.8065,11.55598 4.9552,18.31045 12.2105,26.19268 3.9477,4.28866 5.8399,7.10821 5.4611,8.13814 -0.7444,2.02329 -1.4674,1.97968 -5.0599,-0.30605 z m 21.4123,-1.68474 c -11.3082,-4.54102 -19.9396,-11.52085 -19.9396,-16.12398 0,-2.41989 1.2455,-2.2994 3.5301,0.34178 2.6035,3.00995 15.8064,9.77409 22.6687,11.61351 3.1423,0.84232 8.6957,1.8115 12.3411,2.15421 11.25,1.05659 6.9597,4.59465 -5.4645,4.50674 -4.987,-0.0348 -8.8372,-0.76603 -13.1358,-2.49226 z m 33.0832,-2.37085 c 0,-0.44853 3.0811,-3.69318 6.8469,-7.21054 4.4031,-4.11244 8.113,-8.75714 10.3945,-13.01306 4.0164,-7.49259 5.7484,-8.49792 4.7837,-2.7767 -1.5447,9.16037 -8.0717,18.46276 -15.5524,22.16612 -3.5889,1.77671 -6.4727,2.14836 -6.4727,0.83418 z m -25.2834,-6.84704 c -20.0329,-5.88456 -27.3347,-22.14779 -19.7673,-38.28365 6.7874,-14.47302 19.4235,-21.43893 35.1282,-18.59631 19.2331,3.48122 27.6857,16.04544 24.9266,31.61567 -2.0776,11.72408 -6.3619,19.12161 -15.5096,23.60747 -6.2035,3.04212 -17.4922,3.79678 -24.7779,1.65682 z m 21.8468,-8.08901 c 2.7003,-1.32836 5.882,-3.51924 7.0708,-4.86855 0.8515,-0.96642 10.3043,-15.54052 2.0632,-26.20444 -4.6629,-6.03382 -11.0337,-10.78454 -20.3123,-11.34507 -4.5224,-0.27289 -9.1533,0.0323 -11.199,0.73559 -9.7735,3.36471 -15.7042,13.2642 -15.7143,23.2035 0,6.72392 2.1553,10.99052 7.2246,14.25893 10.1904,6.57043 22.0228,8.57082 30.867,4.22004 z m -15.3718,-19.0327 c -1.1912,-2.11463 0.2477,-4.60958 2.9958,-4.60958 2.3853,0 4.9083,2.7727 4.2217,4.63919 -0.7225,1.96458 -5.7022,2.66031 -6.9387,0.46514 z m 50.4198,6.12579 c 1.0976,-19.02795 -1.6452,-27.12706 -13.1526,-38.83985 -2.8755,-3.2332 -9.6286,-9.25057 -1.3186,-5.90748 4.4644,1.86327 12.8736,10.77916 15.788,16.7384 4.3,8.79337 5.2199,28.56869 1.6601,35.69134 -2.937,5.87666 -3.6526,4.03029 -2.9769,-7.68241 z m -90.3995,1.67209 c -1.8809,-2.36415 -2.2727,-7.1621 -0.927,-11.34801 2.338,-7.27308 3.7466,-5.7942 3.7466,3.93349 0,8.60101 -0.6067,10.19622 -2.8196,7.41452 z m 80.865,-12.67823 c -1.702,-10.86333 -9.0818,-19.94044 -21.8315,-26.85181 -11.7279,-6.35778 -10.8431,-7.70743 2.3102,-3.52296 12.643,4.02215 24.5934,20.06629 22.4675,30.164 -0.9406,4.46694 -2.2644,4.56163 -2.9462,0.21187 z m 21.5205,-6.70523 c -0.5055,-1.02026 -1.4795,-3.69869 -2.1643,-5.95228 -3.641,-11.98066 -12.0214,-22.74743 -24.0529,-30.90178 -7.5037,-5.08544 -8.7038,-6.48676 -5.5562,-6.48676 3.9426,0 14.4499,6.6927 20.9255,13.32895 7.6509,7.84024 13.8839,19.80817 14.0136,26.90731 0.081,4.43648 -1.6597,6.14386 -3.1657,3.10456 z m -109.2628,-9.86881 c 4.2628,-13.16799 21.9332,-26.56839 36.9068,-29.19905 9.829,-1.72707 19.4281,-1.92638 19.7453,1.17004 0.2495,2.43483 -5.455,1.52407 -12.0609,2.13085 -6.866,0.63066 -14.7828,3.23164 -21.6237,6.75057 -9.7482,5.01373 -15.538,11.00834 -20.8703,21.60898 -6.8701,13.6591 -3.2349,1.0532 -2.0972,-2.46139 z m -13.3653,4.76546 c 6.0942,-22.09391 35.9357,-46.75729 57.6466,-46.75729 10.8187,0 22.4884,3.63157 20.0028,6.22482 -0.7456,0.77792 -3.3928,0.73812 -9.1276,-0.13645 -13.2236,-2.01709 -26.1715,2.48565 -38.0954,10.00582 -7.8624,4.95891 -20.9727,18.22754 -26.0629,26.37816 -4.3757,7.00631 -5.3883,8.00085 -4.3635,4.28494 z m 24.0442,-1.84341 c 0,-4.0835 8.6425,-13.71784 15.5286,-17.31055 4.5362,-2.36669 19.4189,-4.92251 22.1944,-3.81155 3.04,1.21686 0.7226,2.4417 -5.6261,2.9733 -8.5748,0.71801 -17.2659,5.22688 -25.0784,13.01017 -6.5537,6.52935 -7.0185,6.8696 -7.0185,5.13863 z m 54.8562,-25.81169 c -1.7936,-1.87073 -1.418,-2.86817 1.08,-2.86817 2.2334,0 4.6151,1.69161 4.6151,3.27783 0,1.2777 -4.38,0.96231 -5.6951,-0.40966 z" transform="translate(-294.21638,-68.262488) translate(-4074.3396,315.65469)"/>
</svg>
